<svg version="1.1" id="Layer_1" xmlns="http://www.w3.org/2000/svg" xmlns:xlink="http://www.w3.org/1999/xlink" x="0px" y="0px"
	 width="100%" viewBox="0 0 757 655" enable-background="new 0 0 757 655" xml:space="preserve">
<path fill="none" opacity="1.000000" stroke="none" 
	d="
M532.000000,656.000000 
	C354.666656,656.000000 177.833328,656.000000 1.000000,656.000000 
	C1.000000,437.666656 1.000000,219.333328 1.000000,1.000000 
	C253.333328,1.000000 505.666656,1.000000 758.000000,1.000000 
	C758.000000,219.333328 758.000000,437.666656 758.000000,656.000000 
	C682.833313,656.000000 607.666687,656.000000 532.000000,656.000000 
M354.015015,368.018402 
	C354.015015,368.018402 354.221832,368.211090 354.848389,368.125122 
	C355.490143,367.372406 356.131927,366.619659 356.877777,365.875702 
	C356.877777,365.875702 356.869141,365.771576 357.491058,365.652161 
	C358.261108,364.727966 359.031158,363.803802 359.892731,362.891846 
	C359.892731,362.891846 359.881287,362.800201 360.508667,362.686310 
	C361.279846,361.754089 362.051025,360.821869 362.905945,359.905396 
	C362.905945,359.905396 362.891266,359.821472 363.523224,359.710266 
	C364.298920,358.774811 365.074615,357.839355 365.936493,356.935730 
	C365.936493,356.935730 365.904877,356.849457 366.541443,356.740906 
	C367.318054,355.799042 368.094635,354.857178 368.959106,353.958374 
	C368.959106,353.958374 368.916016,353.870514 369.556274,353.763947 
	C370.336029,352.819031 371.115753,351.874084 371.982391,350.981873 
	C371.982391,350.981873 371.929688,350.894989 372.574005,350.790527 
	C373.355804,349.841614 374.137604,348.892700 374.993958,347.993683 
	C374.993958,347.993683 374.944061,347.919128 375.591309,347.816467 
	C376.374756,346.863708 377.158173,345.910919 377.998779,344.998779 
	C377.998779,344.998779 377.958374,344.941406 378.607971,344.841003 
	C379.392456,343.886292 380.176971,342.931610 381.532593,341.624207 
	C395.659454,328.051147 409.786285,314.478088 423.948669,300.870941 
	C428.428101,305.135040 432.381714,308.898621 437.215851,313.500397 
	C438.914978,295.475067 440.466675,279.013641 442.077881,261.921234 
	C425.785034,265.316071 410.512451,268.498322 395.239838,271.680573 
	C394.991364,272.293823 394.742889,272.907074 394.494415,273.520325 
	C398.271240,276.300751 402.048065,279.081207 406.292969,282.206268 
	C399.871246,287.449524 395.015350,291.339142 390.241058,295.326569 
	C375.522919,307.618958 360.793762,319.898956 346.176636,332.310608 
	C343.607056,334.492493 341.519470,334.368164 339.323242,332.212830 
	C329.724609,322.793182 320.285400,313.205811 310.498199,303.987305 
	C308.040771,301.672699 308.304474,299.638275 309.458557,297.398224 
	C314.597778,287.423279 319.876068,277.519623 325.144623,267.611725 
	C332.800354,253.214584 340.419769,238.797348 348.199982,224.467545 
	C351.540741,218.314468 355.246338,212.359467 359.289825,206.931412 
	C361.556763,211.335220 363.825745,215.737976 366.090302,220.143005 
	C372.495880,232.603271 378.894135,245.067276 385.308350,257.523102 
	C386.765198,260.352173 388.875610,261.436401 392.184723,260.680969 
	C406.094604,257.505493 420.068756,254.608261 433.957855,251.347214 
	C437.122955,250.604080 440.395721,249.308243 443.016144,247.427155 
	C456.018585,238.093262 461.006073,215.391159 453.807678,203.016357 
	C451.409973,198.894409 449.274048,194.619415 447.044098,190.400818 
	C437.474304,172.296768 427.937134,154.175400 418.342285,136.084625 
	C411.850159,123.843918 405.203522,111.684654 398.770508,99.413200 
	C392.984222,88.375488 385.986725,78.828041 373.512177,74.400726 
	C360.585083,69.812790 348.117584,70.293968 336.226288,77.005112 
	C322.630798,84.678093 317.910950,98.849838 311.171753,112.212700 
	C310.008942,114.380524 308.831512,116.540649 307.685669,118.717422 
	C300.112854,133.103775 292.537476,147.488770 284.981232,161.883835 
	C277.635925,175.877060 270.342285,189.897461 262.970703,203.876785 
	C256.377563,216.379776 249.689087,228.832428 243.079285,241.326660 
	C235.491821,255.668869 227.938919,270.029358 220.381577,284.387482 
	C213.048141,298.320190 205.740936,312.266754 198.398315,326.194611 
	C191.807205,338.696899 185.122116,351.150085 178.603348,363.689850 
	C175.828812,369.027008 173.372238,374.529449 170.164474,380.132721 
	C169.610977,381.195679 169.057465,382.258606 168.503952,383.321533 
	C168.980820,383.584351 169.457687,383.847137 169.934555,384.109955 
	C170.793564,382.916687 171.652573,381.723450 172.877625,380.472412 
	C172.877625,380.472412 173.172638,380.248138 173.791656,380.128784 
	C174.616806,379.200043 175.441956,378.271301 176.280823,377.270172 
	C176.280823,377.270172 176.349274,377.297394 176.950775,377.102509 
	C177.913208,376.042755 178.875641,374.983002 180.095596,373.629547 
	C180.095596,373.629547 180.166855,373.245453 180.787506,372.981659 
	C181.691956,371.917236 182.596390,370.852814 183.710663,369.655640 
	C183.710663,369.655640 183.769363,369.414368 184.379456,369.458984 
	C184.925278,368.976105 185.471100,368.493256 186.480743,367.533569 
	C188.381287,365.771271 190.281830,364.009003 192.762650,362.067322 
	C193.258621,361.441284 193.754608,360.815216 194.638535,360.074585 
	C194.638535,360.074585 194.902130,359.767731 195.525864,359.660706 
	C196.317856,358.751251 197.109848,357.841797 197.983002,356.990143 
	C197.983002,356.990143 197.935089,356.902802 198.584503,356.811127 
	C199.392029,355.875549 200.199554,354.939941 201.452179,353.751709 
	C201.569107,353.627472 201.686050,353.503265 202.425598,353.438049 
	C202.990417,352.652161 203.555237,351.866272 204.717850,350.784515 
	C207.192047,348.593353 209.666245,346.402222 212.758667,344.094086 
	C213.599838,343.186310 214.441010,342.278534 215.314072,341.310120 
	C215.314072,341.310120 215.382629,341.310699 216.002411,341.070404 
	C217.170334,339.642487 218.338242,338.214569 219.718292,336.680206 
	C219.718292,336.680206 219.776443,336.450104 220.391434,336.512238 
	C220.941788,336.016998 221.492142,335.521759 222.495865,334.544220 
	C224.398209,332.786804 226.300568,331.029388 228.808212,329.095886 
	C229.472656,328.356964 230.137100,327.618073 230.891830,326.893188 
	C230.891830,326.893188 230.883133,326.802246 231.507233,326.685730 
	C232.294800,325.761932 233.082382,324.838135 233.956802,323.958069 
	C233.956802,323.958069 233.915802,323.869904 234.553925,323.763092 
	C235.348358,322.827026 236.142792,321.890961 236.997482,320.998871 
	C236.997482,320.998871 236.955597,320.937134 237.619156,320.843903 
	C238.413116,319.896179 239.207092,318.948456 240.000000,318.000000 
	C240.000000,318.000000 240.000748,318.001007 240.670807,317.911530 
	C241.470078,316.955841 242.269348,316.000153 243.485352,314.812134 
	C243.485352,314.812134 243.824402,314.476410 244.455292,314.521851 
	C245.019562,313.714752 245.583832,312.907623 246.752670,311.820251 
	C249.221725,309.623230 251.690796,307.426208 254.770752,305.073730 
	C255.597031,304.149139 256.423309,303.224579 257.177155,302.139221 
	C257.177155,302.139221 257.301605,302.264130 257.881104,302.078400 
	C258.690491,301.190857 259.499878,300.303284 260.349762,299.344910 
	C260.349762,299.344910 260.429016,299.325500 261.024994,299.046631 
	C262.140656,297.618896 263.256317,296.191132 264.631653,294.616302 
	C264.631653,294.616302 264.764465,294.349091 265.402771,294.438049 
	C266.117767,293.555725 266.832733,292.673431 267.746521,291.721436 
	C267.746521,291.721436 267.786407,291.514587 268.412720,291.589722 
	C268.958954,291.070557 269.505188,290.551392 270.563904,289.505249 
	C271.425537,289.131042 272.287170,288.756836 273.299713,289.063141 
	C274.206757,289.699402 275.113800,290.335663 276.000000,291.000000 
	C276.000000,291.000000 276.028076,290.979156 276.111938,291.649994 
	C277.073792,292.434418 278.035645,293.218842 279.000000,294.000000 
	C279.000000,294.000000 278.996704,294.002472 279.073700,294.677826 
	C280.040070,295.463104 281.006439,296.248413 282.000000,297.000000 
	C282.000000,297.000000 281.966278,297.027161 282.034790,297.706146 
	C283.005859,298.491455 283.976898,299.276733 284.998779,300.001221 
	C284.998779,300.001221 284.937958,300.052032 284.999054,300.735840 
	C285.976318,301.525482 286.953583,302.315125 288.142944,303.506165 
	C288.142944,303.506165 288.435333,303.853485 288.312988,304.461212 
	C288.922272,304.843018 289.531555,305.224823 290.570038,306.010864 
	C290.839966,306.296387 291.109894,306.581879 291.262817,307.485382 
	C291.884064,307.875916 292.505341,308.266418 293.628418,309.149536 
	C298.022156,313.811310 302.415863,318.473083 306.990784,323.742310 
	C307.930695,324.555939 308.870636,325.369537 309.997559,326.003662 
	C309.997559,326.003662 309.817078,326.189880 309.998901,326.787476 
	C310.927521,327.592346 311.856110,328.397217 312.986603,329.015686 
	C312.986603,329.015686 312.798187,329.215729 312.983124,329.809845 
	C313.905975,330.614777 314.828827,331.419708 315.952911,332.049408 
	C315.952911,332.049408 315.775665,332.248871 315.967255,332.837616 
	C316.886078,333.639252 317.804901,334.440857 318.904419,335.097900 
	C318.904419,335.097900 318.757904,335.277039 318.954529,335.860901 
	C319.868103,336.660461 320.781677,337.460022 321.839172,338.162689 
	C321.839172,338.162689 321.740906,338.305695 321.942596,338.883636 
	C322.847229,339.682709 323.751831,340.481781 324.740265,341.261078 
	C324.740265,341.261078 324.719910,341.344757 324.932556,341.913696 
	C325.829742,342.708221 326.726959,343.502716 327.692169,344.309296 
	C327.692169,344.309296 327.703857,344.377380 327.924042,344.938385 
	C328.811523,345.730530 329.698975,346.522644 330.661316,347.340607 
	C330.661316,347.340607 330.686859,347.415588 330.917847,347.966553 
	C331.796692,348.754028 332.675537,349.541504 333.635101,350.367645 
	C333.635101,350.367645 333.673584,350.448425 333.914185,350.989655 
	C334.782501,351.773956 335.650818,352.558258 336.606293,353.396667 
	C336.606293,353.396667 336.660431,353.483795 336.931061,354.039459 
	C337.981171,354.966797 339.031281,355.894104 340.405151,357.061554 
	C340.405151,357.061554 340.802734,357.127777 340.991058,357.776764 
	C342.075378,358.648010 343.159729,359.519257 344.342651,360.645905 
	C344.342651,360.645905 344.586487,360.770355 344.426086,361.405853 
	C345.363312,362.089874 346.300537,362.773926 347.290436,363.692169 
	C347.290436,363.692169 347.514435,363.778564 347.355927,364.421417 
	C348.306702,365.122406 349.257477,365.823364 350.375732,367.065582 
	C350.590790,367.372833 350.805878,367.680084 351.055237,368.570099 
	C352.106018,368.455200 353.156799,368.340302 354.015015,368.018402 
M543.955505,369.087677 
	C543.955505,369.087677 543.723938,369.036011 543.547668,368.340271 
	C540.373291,363.551270 537.198975,358.762238 533.792358,353.402618 
	C532.839905,352.722107 531.887390,352.041565 530.448608,350.866638 
	C529.804810,350.627838 529.160950,350.389038 528.430176,349.524963 
	C527.270630,348.731598 526.111023,347.938263 524.761841,346.518188 
	C523.868591,345.992828 522.975403,345.467468 521.888000,344.333801 
	C520.913513,343.625824 519.939026,342.917847 518.735840,341.883179 
	C518.735840,341.883179 518.347839,341.791260 518.025940,341.211060 
	C515.985046,339.652893 513.944092,338.094696 511.394379,336.162170 
	C510.983917,336.074402 510.573486,335.986633 509.989044,335.248169 
	C509.197235,334.517914 508.405426,333.787659 507.953125,332.411926 
	C509.894135,329.664673 511.835114,326.917389 513.759583,324.193512 
	C520.401794,328.920746 526.362427,333.162872 532.715820,337.684540 
	C531.771729,312.981171 530.858887,289.095154 529.918701,264.492889 
	C506.752808,272.876221 484.197968,281.038452 460.952301,289.450684 
	C465.720551,293.025726 469.862091,296.503998 474.377502,299.399170 
	C478.041107,301.748199 478.265137,303.537079 475.228149,306.697296 
	C458.247894,324.366760 441.460815,342.221741 424.513519,359.923126 
	C421.292969,363.286926 417.648956,366.245300 413.557739,368.992340 
	C407.285278,363.314758 401.012848,357.637146 392.965668,350.353088 
	C378.688599,365.529999 364.507233,380.605133 350.727631,395.253204 
	C337.640503,382.740265 325.118988,370.768127 311.767181,358.002136 
	C283.743469,395.846466 255.476303,434.019592 226.689987,472.893799 
	C229.022873,473.213318 230.124985,473.495392 231.227280,473.496002 
	C257.720581,473.510803 284.214600,473.575165 310.705963,473.342163 
	C312.947449,473.322449 315.905853,471.850189 317.286255,470.081238 
	C327.761169,456.658020 337.915955,442.985229 348.191162,429.405823 
	C352.829010,423.276550 357.513855,417.182800 363.142700,409.808228 
	C366.018860,413.288574 368.378113,416.143402 371.107513,419.589966 
	C382.764740,432.286987 394.384003,445.019409 406.124603,457.638855 
	C407.689453,459.320831 409.312164,459.838074 411.322083,457.164764 
	C418.993866,446.960632 427.023468,437.024689 434.954010,427.016022 
	C443.202301,416.606323 451.490692,406.228363 460.435364,396.187927 
	C464.328522,403.222076 468.221680,410.256195 472.146393,417.955780 
	C472.802032,418.906494 473.510742,419.825256 474.105164,420.812805 
	C480.125824,430.814728 485.284454,441.473816 492.337708,450.682648 
	C502.277679,463.660461 515.920837,472.272156 532.508240,473.089386 
	C554.440552,474.169861 576.453003,473.630402 598.431152,473.747864 
	C599.001343,473.750916 599.574097,473.298065 601.095520,472.658569 
	C582.474487,438.865173 564.023987,405.381378 545.586426,371.307770 
	C545.034546,370.646393 544.482727,369.985016 543.955505,369.087677 
M519.729492,226.668381 
	C533.805908,227.658157 547.932495,229.337296 561.838989,225.506287 
	C574.387390,222.049377 583.827271,215.371780 588.626282,202.275620 
	C593.776672,188.220551 585.406006,166.889786 570.768311,161.742691 
	C568.066467,160.792618 565.470154,157.586807 564.219421,154.797028 
	C558.151184,141.261978 544.805298,132.264984 530.105286,132.891174 
	C515.920837,133.495392 505.909424,141.074341 497.791779,152.954956 
	C483.618744,153.883362 472.130280,159.118134 466.424866,173.097855 
	C462.519501,182.666946 462.119934,192.109055 467.075989,201.741119 
	C471.299652,209.949738 477.979034,214.628128 486.119324,218.005157 
	C492.333710,220.583191 492.771576,221.616394 490.449890,228.009201 
	C487.941956,234.914688 485.170166,241.724365 482.179077,249.438217 
	C486.757629,247.727905 491.228363,246.329529 495.468018,244.418457 
	C504.730408,240.243271 512.077637,233.496887 519.729492,226.668381 
M181.154373,473.472748 
	C190.612259,473.677917 198.671341,471.872711 204.721512,463.104126 
	C214.834320,448.447571 225.939087,434.473267 236.692230,420.261658 
	C242.802414,412.186310 249.904541,404.722076 255.043594,396.080841 
	C265.209778,378.986450 274.364929,361.288574 283.849762,343.792358 
	C287.210052,337.593781 285.972137,327.410522 281.072845,324.546661 
	C274.040009,320.435730 268.308350,318.470032 260.521393,325.835754 
	C241.945419,343.406921 223.145157,360.741364 204.400284,378.133453 
	C185.927307,395.273285 167.472336,412.433380 148.887024,429.450867 
	C140.055832,437.537109 134.931488,447.991333 129.565643,458.334137 
	C127.129143,463.030579 124.742401,467.752869 121.815041,473.476257 
	C142.061447,473.476257 161.137833,473.476257 181.154373,473.472748 
M543.258606,545.734192 
	C541.224670,550.867432 539.190674,556.000671 536.948547,561.659180 
	C535.477295,560.429626 534.651978,559.918884 534.056030,559.213989 
	C528.560547,552.713745 523.225830,546.072510 517.583008,539.703857 
	C514.997925,536.786133 515.058899,535.329651 518.717529,533.475220 
	C529.191772,528.166321 532.901855,512.295593 526.490173,502.383301 
	C522.038574,495.501099 515.325745,492.786926 507.802338,492.211670 
	C500.018066,491.616486 492.148529,492.231415 484.333374,491.906219 
	C480.224152,491.735260 478.916626,492.938660 478.966858,497.164398 
	C479.186615,515.648621 479.061493,534.136902 479.061462,552.623718 
	C479.061462,567.211060 479.061646,567.214783 493.656830,566.420227 
	C494.119873,566.395020 494.569214,566.119019 495.892609,565.657043 
	C495.892609,556.971313 495.892609,548.058105 495.892609,539.144897 
	C503.296082,546.999756 509.421326,555.100708 515.827515,562.973083 
	C517.133972,564.578613 519.464172,566.246460 521.376953,566.312866 
	C531.191528,566.653015 541.025574,566.565979 550.847900,566.374512 
	C552.066467,566.350769 553.782654,565.080811 554.355347,563.932861 
	C555.820679,560.995483 556.513550,557.665649 558.038574,554.768127 
	C558.774536,553.369812 560.617981,551.811646 562.082886,551.678406 
	C566.543091,551.272827 571.063171,551.522644 575.559937,551.522034 
	C587.071960,551.520508 587.001587,551.548462 591.235657,562.585999 
	C591.806519,564.073975 593.427307,566.113342 594.694519,566.213135 
	C599.913391,566.624023 605.183350,566.385132 611.098999,566.385132 
	C606.185791,554.396667 601.646301,543.447449 597.208191,532.457336 
	C592.073608,519.742615 587.051575,506.982422 581.894348,494.276947 
	C581.528931,493.376587 580.480835,492.153229 579.704651,492.119293 
	C575.385010,491.930267 571.045471,491.951874 566.727295,492.178772 
	C565.878906,492.223328 564.707886,493.325256 564.340881,494.210999 
	C561.051025,502.149414 557.967285,510.172974 554.705933,518.123474 
	C551.022888,527.101929 547.218994,536.030823 543.258606,545.734192 
M288.560364,491.214355 
	C267.295410,491.368256 254.191254,507.046478 252.299255,524.773682 
	C249.809204,548.104370 264.912079,564.041504 280.103027,566.437683 
	C277.302704,568.569641 274.127472,570.416443 271.795166,573.018738 
	C270.730682,574.206482 270.668213,577.145142 271.330872,578.824158 
	C272.277405,581.222473 274.106659,582.071777 276.729675,579.713562 
	C278.120667,578.463013 280.893127,577.903625 282.822449,578.251038 
	C289.405151,579.436340 296.148376,580.484924 302.350769,582.845642 
	C311.050903,586.157166 320.560608,584.800354 326.046570,577.752258 
	C327.101868,576.396423 327.232849,573.657654 326.702515,571.881714 
	C325.840454,568.994873 324.080597,566.376038 322.704559,563.653748 
	C313.952820,568.049683 306.963470,568.612671 302.925049,565.376709 
	C306.127594,563.269958 309.659698,561.528992 312.474823,558.992310 
	C323.821625,548.767883 327.084229,536.121826 324.763641,521.046875 
	C322.273163,504.868164 305.623138,489.900513 288.560364,491.214355 
M438.302856,567.135315 
	C455.838623,566.070129 468.475647,552.027954 470.980255,535.794495 
	C473.639496,518.558472 467.335541,504.855347 452.603546,495.706543 
	C442.935852,489.702698 431.545166,489.034515 421.399811,492.984131 
	C409.436127,497.641632 401.205780,506.838470 397.847534,520.132690 
	C394.888123,531.847961 397.279602,542.166687 403.766663,551.665588 
	C411.759918,563.369995 423.180695,568.447266 438.302856,567.135315 
M189.082047,554.469604 
	C189.082047,558.256958 189.082047,562.044312 189.082047,565.950867 
	C198.998917,565.950867 208.449142,566.232544 217.866379,565.798706 
	C221.180237,565.645996 224.696411,564.232727 227.632370,562.545959 
	C238.202225,556.473267 244.687378,547.657959 247.549179,535.389160 
	C249.965958,525.028198 243.114410,507.480530 234.810562,500.810425 
	C220.991119,489.709808 205.211060,492.105164 189.082092,492.177917 
	C189.082092,512.968933 189.082092,533.224365 189.082047,554.469604 
M365.569580,550.565918 
	C357.765869,551.750977 351.920624,549.338623 350.946930,544.057617 
	C349.959351,538.701172 349.179932,533.243347 349.026581,527.809631 
	C348.730743,517.326477 349.040161,506.826935 348.824463,496.339874 
	C348.794403,494.879333 347.328979,492.309570 346.324249,492.204651 
	C341.934479,491.746246 337.469513,492.007416 333.198700,492.007416 
	C332.826050,493.077271 332.518127,493.543365 332.523590,494.005737 
	C332.738708,512.143433 332.698914,530.291199 333.365479,548.412903 
	C333.622833,555.409302 338.452698,560.225952 344.304047,563.768982 
	C351.269592,567.986633 358.988190,567.240723 366.608093,567.022949 
	C376.917847,566.728271 387.964569,560.388550 389.066833,548.625671 
	C390.811096,530.011353 390.424835,511.197449 390.953278,491.990387 
	C385.910461,491.990387 382.091522,492.184875 378.301727,491.935852 
	C374.493469,491.685608 373.129883,492.848297 373.132263,496.945099 
	C373.140564,511.424255 372.634338,525.902893 372.471954,540.383362 
	C372.419220,545.087891 370.455017,548.249573 365.569580,550.565918 
M165.628265,559.838257 
	C166.658752,561.892578 167.689240,563.946899 168.677032,565.916077 
	C174.424576,565.916077 180.119781,565.916077 186.382965,565.916077 
	C184.357117,561.299805 182.485413,557.308228 180.835327,553.227173 
	C173.813110,535.859192 166.892517,518.450073 159.861343,501.085785 
	C156.150665,491.921814 156.076019,492.171631 145.771759,491.872650 
	C142.124146,491.766785 140.269638,493.188721 139.079025,496.160522 
	C136.691986,502.118530 134.442566,508.131958 132.031815,514.080139 
	C127.530319,525.186951 122.919243,536.249451 118.423149,547.358398 
	C115.982132,553.389771 113.683960,559.478882 110.998573,566.370178 
	C113.775497,566.370178 115.866554,566.370056 117.957611,566.370300 
	C128.784195,566.371460 128.810196,566.381653 132.795547,556.266174 
	C134.155487,552.814453 135.868195,550.560547 140.292191,551.053711 
	C145.231903,551.604370 150.270844,551.260498 155.266510,551.314270 
	C163.083450,551.398438 163.083420,551.401428 165.628265,559.838257 
z"/>
<path fill="#1A1FAB" opacity="1.000000" stroke="none" 
	d="
M212.140427,344.211090 
	C209.666245,346.402222 207.192047,348.593353 204.105850,350.929321 
	C202.930222,351.842407 202.366608,352.610718 201.802979,353.379028 
	C201.686050,353.503265 201.569107,353.627472 200.889664,353.876801 
	C199.529785,354.968872 198.732437,355.935822 197.935089,356.902802 
	C197.935089,356.902802 197.983002,356.990143 197.592285,356.947906 
	C196.435089,357.859711 195.668610,358.813721 194.902130,359.767731 
	C194.902130,359.767731 194.638535,360.074585 194.084961,360.078735 
	C193.081711,360.804138 192.632050,361.525421 192.182373,362.246704 
	C190.281830,364.009003 188.381287,365.771271 185.960663,367.778809 
	C184.883499,368.487488 184.326431,368.950928 183.769363,369.414368 
	C183.769363,369.414368 183.710663,369.655640 183.305756,369.818726 
	C181.989532,371.069702 181.078186,372.157593 180.166855,373.245453 
	C180.166855,373.245453 180.095596,373.629547 179.606430,373.779266 
	C178.194595,375.051788 177.271927,376.174591 176.349274,377.297394 
	C176.349274,377.297394 176.280823,377.270172 175.916000,377.214600 
	C174.758331,378.188721 173.965485,379.218414 173.172638,380.248138 
	C173.172638,380.248138 172.877625,380.472412 172.266617,380.335876 
	C171.360794,380.118469 171.065964,380.037598 170.771149,379.956757 
	C173.372238,374.529449 175.828812,369.027008 178.603348,363.689850 
	C185.122116,351.150085 191.807205,338.696899 198.398315,326.194611 
	C205.740936,312.266754 213.048141,298.320190 220.381577,284.387482 
	C227.938919,270.029358 235.491821,255.668869 243.079285,241.326660 
	C249.689087,228.832428 256.377563,216.379776 262.970703,203.876785 
	C270.342285,189.897461 277.635925,175.877060 284.981232,161.883835 
	C292.537476,147.488770 300.112854,133.103775 307.685669,118.717422 
	C308.831512,116.540649 310.008942,114.380524 311.509216,112.417831 
	C315.893005,120.380951 319.960632,128.127930 323.981140,135.899277 
	C331.712219,150.842819 339.553986,165.731461 347.078156,180.778732 
	C351.263672,189.149231 354.901520,197.793564 358.786194,206.314484 
	C355.246338,212.359467 351.540741,218.314468 348.199982,224.467545 
	C340.419769,238.797348 332.800354,253.214584 325.144623,267.611725 
	C319.876068,277.519623 314.597778,287.423279 309.458557,297.398224 
	C308.304474,299.638275 308.040771,301.672699 310.498199,303.987305 
	C320.285400,313.205811 329.724609,322.793182 339.323242,332.212830 
	C341.519470,334.368164 343.607056,334.492493 346.176636,332.310608 
	C360.793762,319.898956 375.522919,307.618958 390.241058,295.326569 
	C395.015350,291.339142 399.871246,287.449524 406.292969,282.206268 
	C402.048065,279.081207 398.271240,276.300751 394.494415,273.520325 
	C394.742889,272.907074 394.991364,272.293823 395.239838,271.680573 
	C410.512451,268.498322 425.785034,265.316071 442.077881,261.921234 
	C440.466675,279.013641 438.914978,295.475067 437.215851,313.500397 
	C432.381714,308.898621 428.428101,305.135040 423.948669,300.870941 
	C409.786285,314.478088 395.659454,328.051147 380.909180,341.812683 
	C379.509949,342.981262 378.734161,343.961334 377.958374,344.941406 
	C377.958374,344.941406 377.998779,344.998779 377.612976,344.976624 
	C376.466125,345.942657 375.705078,346.930908 374.944061,347.919128 
	C374.944061,347.919128 374.993958,347.993683 374.601074,347.967010 
	C373.448730,348.925232 372.689209,349.910126 371.929688,350.894989 
	C371.929688,350.894989 371.982391,350.981873 371.584961,350.953552 
	C370.430389,351.906982 369.673187,352.888763 368.916016,353.870514 
	C368.916016,353.870514 368.959106,353.958374 368.562866,353.935120 
	C367.412720,354.891083 366.658813,355.870270 365.904907,356.849457 
	C365.904877,356.849457 365.936493,356.935730 365.542877,356.917664 
	C364.396606,357.873535 363.643951,358.847504 362.891266,359.821472 
	C362.891266,359.821472 362.905945,359.905396 362.515625,359.895935 
	C361.377289,360.857727 360.629303,361.828949 359.881287,362.800201 
	C359.881287,362.800201 359.892731,362.891846 359.500580,362.883911 
	C358.362000,363.841156 357.615540,364.806366 356.869141,365.771545 
	C356.869141,365.771576 356.877777,365.875702 356.474487,365.871918 
	C355.454773,366.649109 354.838287,367.430115 354.221832,368.211090 
	C354.221832,368.211090 354.015015,368.018402 353.714905,368.066345 
	C352.616852,368.071991 351.818878,368.029663 351.020935,367.987335 
	C350.805878,367.680084 350.590790,367.372833 350.218079,366.520264 
	C349.211761,365.242798 348.363098,364.510681 347.514435,363.778564 
	C347.514435,363.778564 347.290436,363.692169 347.181000,363.309509 
	C346.243195,362.208038 345.414825,361.489197 344.586487,360.770355 
	C344.586487,360.770355 344.342651,360.645905 344.183472,360.231537 
	C342.950439,358.920715 341.876587,358.024231 340.802734,357.127777 
	C340.802734,357.127777 340.405151,357.061554 340.223541,356.581787 
	C338.914764,355.229279 337.787598,354.356537 336.660431,353.483795 
	C336.660431,353.483795 336.606293,353.396667 336.660522,353.007965 
	C335.701019,351.895630 334.687317,351.172028 333.673584,350.448425 
	C333.673584,350.448425 333.635101,350.367645 333.686157,349.985901 
	C332.720428,348.874634 331.703644,348.145111 330.686859,347.415588 
	C330.686859,347.415588 330.661316,347.340607 330.708771,346.964966 
	C329.738770,345.852020 328.721313,345.114685 327.703857,344.377380 
	C327.703857,344.377380 327.692169,344.309296 327.734863,343.940094 
	C326.758301,342.828857 325.739105,342.086823 324.719910,341.344757 
	C324.719910,341.344757 324.740265,341.261078 324.768433,340.908081 
	C323.778046,339.805267 322.759491,339.055481 321.740906,338.305695 
	C321.740906,338.305695 321.839172,338.162689 321.828461,337.848419 
	C320.797791,336.781799 319.777832,336.029419 318.757904,335.277039 
	C318.757904,335.277039 318.904419,335.097900 318.869019,334.807983 
	C317.814301,333.761658 316.794983,333.005249 315.775665,332.248871 
	C315.775665,332.248871 315.952911,332.049408 315.901428,331.775696 
	C314.832672,330.739899 313.815430,329.977814 312.798187,329.215729 
	C312.798187,329.215729 312.986603,329.015686 312.927460,328.748535 
	C311.851227,327.717529 310.834137,326.953705 309.817078,326.189880 
	C309.817078,326.189880 309.997559,326.003662 309.940247,325.731995 
	C308.858490,324.685150 307.834045,323.910004 306.809601,323.134857 
	C302.415863,318.473083 298.022156,313.811310 293.343506,308.630554 
	C292.498993,307.696838 291.939423,307.282104 291.379822,306.867401 
	C291.109894,306.581879 290.839966,306.296387 290.324219,305.541443 
	C289.530731,304.665863 288.983032,304.259674 288.435333,303.853485 
	C288.435333,303.853485 288.142944,303.506165 288.032593,302.958984 
	C286.927460,301.625214 285.932709,300.838623 284.937958,300.052032 
	C284.937958,300.052032 284.998779,300.001221 284.968475,299.687683 
	C283.947540,298.591827 282.956909,297.809479 281.966278,297.027161 
	C281.966278,297.027161 282.000000,297.000000 281.978241,296.674866 
	C280.969879,295.567291 279.983276,294.784882 278.996704,294.002472 
	C278.996704,294.002472 279.000000,294.000000 278.987427,293.661713 
	C277.992615,292.541992 277.010345,291.760590 276.028076,290.979156 
	C276.028076,290.979156 276.000000,291.000000 276.008240,290.681824 
	C275.060608,289.703278 274.104706,289.042938 273.148804,288.382599 
	C272.287170,288.756836 271.425537,289.131042 270.010071,289.769684 
	C268.899628,290.527618 268.343018,291.021088 267.786407,291.514587 
	C267.786407,291.514587 267.746521,291.721436 267.373169,291.819824 
	C266.254730,292.728516 265.509583,293.538788 264.764465,294.349091 
	C264.764465,294.349091 264.631653,294.616302 264.197601,294.805237 
	C262.652039,296.437958 261.540527,297.881744 260.429016,299.325500 
	C260.429016,299.325500 260.349762,299.344910 259.972137,299.276123 
	C258.830200,300.226288 258.065918,301.245209 257.301605,302.264130 
	C257.301605,302.264130 257.177155,302.139221 256.853760,302.143372 
	C255.740189,303.174774 254.950027,304.201996 254.159866,305.229187 
	C251.690796,307.426208 249.221725,309.623230 246.131714,311.956726 
	C244.948639,312.887634 244.386520,313.682007 243.824402,314.476410 
	C243.824402,314.476410 243.485352,314.812134 242.932800,314.932068 
	C241.587082,316.035004 240.793900,317.018005 240.000732,318.001007 
	C240.000748,318.001007 240.000000,318.000000 239.659622,318.004028 
	C238.531357,318.984375 237.743469,319.960754 236.955597,320.937134 
	C236.955597,320.937134 236.997482,320.998871 236.611084,320.967590 
	C235.455078,321.914154 234.685440,322.892029 233.915802,323.869904 
	C233.915802,323.869904 233.956802,323.958069 233.562485,323.928223 
	C232.406479,324.866333 231.644806,325.834290 230.883133,326.802246 
	C230.883133,326.802246 230.891830,326.893188 230.488724,326.882324 
	C229.458054,327.671600 228.830475,328.471802 228.202911,329.271973 
	C226.300568,331.029388 224.398209,332.786804 221.978333,334.794464 
	C220.899368,335.513184 220.337906,335.981659 219.776459,336.450134 
	C219.776443,336.450104 219.718292,336.680206 219.296753,336.836670 
	C217.711029,338.432312 216.546829,339.871490 215.382629,341.310699 
	C215.382629,341.310699 215.314072,341.310120 214.942780,341.241699 
	C213.761139,342.185852 212.950790,343.198456 212.140427,344.211090 
z"/>
<path fill="#1BB1F5" opacity="1.000000" stroke="none" 
	d="
M359.038025,206.622955 
	C354.901520,197.793564 351.263672,189.149231 347.078156,180.778732 
	C339.553986,165.731461 331.712219,150.842819 323.981140,135.899277 
	C319.960632,128.127930 315.893005,120.380951 311.799683,112.255875 
	C317.910950,98.849838 322.630798,84.678093 336.226288,77.005112 
	C348.117584,70.293968 360.585083,69.812790 373.512177,74.400726 
	C385.986725,78.828041 392.984222,88.375488 398.770508,99.413200 
	C405.203522,111.684654 411.850159,123.843918 418.342285,136.084625 
	C427.937134,154.175400 437.474304,172.296768 447.044098,190.400818 
	C449.274048,194.619415 451.409973,198.894409 453.807678,203.016357 
	C461.006073,215.391159 456.018585,238.093262 443.016144,247.427155 
	C440.395721,249.308243 437.122955,250.604080 433.957855,251.347214 
	C420.068756,254.608261 406.094604,257.505493 392.184723,260.680969 
	C388.875610,261.436401 386.765198,260.352173 385.308350,257.523102 
	C378.894135,245.067276 372.495880,232.603271 366.090302,220.143005 
	C363.825745,215.737976 361.556763,211.335220 359.038025,206.622955 
z"/>
<path fill="#1CB1F5" opacity="1.000000" stroke="none" 
	d="
M459.761536,395.836517 
	C451.490692,406.228363 443.202301,416.606323 434.954010,427.016022 
	C427.023468,437.024689 418.993866,446.960632 411.322083,457.164764 
	C409.312164,459.838074 407.689453,459.320831 406.124603,457.638855 
	C394.384003,445.019409 382.764740,432.286987 370.992310,418.933594 
	C371.894348,416.807098 372.736694,415.170105 373.955780,413.892639 
	C386.256348,401.002533 398.662781,388.213043 410.906647,375.269653 
	C412.403381,373.687317 413.121429,371.368347 414.200348,369.390747 
	C417.648956,366.245300 421.292969,363.286926 424.513519,359.923126 
	C441.460815,342.221741 458.247894,324.366760 475.228149,306.697296 
	C478.265137,303.537079 478.041107,301.748199 474.377502,299.399170 
	C469.862091,296.503998 465.720551,293.025726 460.952301,289.450684 
	C484.197968,281.038452 506.752808,272.876221 529.918701,264.492889 
	C530.858887,289.095154 531.771729,312.981171 532.715820,337.684540 
	C526.362427,333.162872 520.401794,328.920746 513.759583,324.193512 
	C511.835114,326.917389 509.894135,329.664673 507.515381,332.809845 
	C506.728699,333.793976 506.379700,334.380157 505.721680,335.132935 
	C503.620850,337.615753 501.829010,339.931915 499.728210,342.239258 
	C499.062744,342.841339 498.706268,343.452240 498.140137,344.340393 
	C488.848877,356.274658 479.659424,367.849976 470.735199,379.626282 
	C466.799774,384.819397 463.402924,390.420593 459.761536,395.836517 
z"/>
<path fill="#1A20AB" opacity="1.000000" stroke="none" 
	d="
M413.879028,369.191528 
	C413.121429,371.368347 412.403381,373.687317 410.906647,375.269653 
	C398.662781,388.213043 386.256348,401.002533 373.955780,413.892639 
	C372.736694,415.170105 371.894348,416.807098 370.807251,418.637695 
	C368.378113,416.143402 366.018860,413.288574 363.142700,409.808228 
	C357.513855,417.182800 352.829010,423.276550 348.191162,429.405823 
	C337.915955,442.985229 327.761169,456.658020 317.286255,470.081238 
	C315.905853,471.850189 312.947449,473.322449 310.705963,473.342163 
	C284.214600,473.575165 257.720581,473.510803 231.227280,473.496002 
	C230.124985,473.495392 229.022873,473.213318 226.689987,472.893799 
	C255.476303,434.019592 283.743469,395.846466 311.767181,358.002136 
	C325.118988,370.768127 337.640503,382.740265 350.727631,395.253204 
	C364.507233,380.605133 378.688599,365.529999 392.965668,350.353088 
	C401.012848,357.637146 407.285278,363.314758 413.879028,369.191528 
z"/>
<path fill="#1A1FAB" opacity="1.000000" stroke="none" 
	d="
M180.684296,473.474487 
	C161.137833,473.476257 142.061447,473.476257 121.815041,473.476257 
	C124.742401,467.752869 127.129143,463.030579 129.565643,458.334137 
	C134.931488,447.991333 140.055832,437.537109 148.887024,429.450867 
	C167.472336,412.433380 185.927307,395.273285 204.400284,378.133453 
	C223.145157,360.741364 241.945419,343.406921 260.521393,325.835754 
	C268.308350,318.470032 274.040009,320.435730 281.072845,324.546661 
	C285.972137,327.410522 287.210052,337.593781 283.849762,343.792358 
	C274.364929,361.288574 265.209778,378.986450 255.043594,396.080841 
	C249.904541,404.722076 242.802414,412.186310 236.692230,420.261658 
	C225.939087,434.473267 214.834320,448.447571 204.721512,463.104126 
	C198.671341,471.872711 190.612259,473.677917 180.684296,473.474487 
z"/>
<path fill="#1BB1F5" opacity="1.000000" stroke="none" 
	d="
M545.573547,371.897552 
	C564.023987,405.381378 582.474487,438.865173 601.095520,472.658569 
	C599.574097,473.298065 599.001343,473.750916 598.431152,473.747864 
	C576.453003,473.630402 554.440552,474.169861 532.508240,473.089386 
	C515.920837,472.272156 502.277679,463.660461 492.337708,450.682648 
	C485.284454,441.473816 480.125824,430.814728 474.105164,420.812805 
	C473.510742,419.825256 472.802032,418.906494 472.409760,417.384125 
	C473.786743,414.309937 474.493713,411.508606 476.078278,409.352142 
	C488.657166,392.233215 501.392242,375.228912 514.109741,358.212097 
	C515.879822,355.843567 517.437683,352.381958 519.785583,351.652191 
	C521.971558,350.972778 525.080505,353.262909 527.876953,354.554138 
	C528.985596,355.519348 530.000366,356.176239 531.304871,356.951233 
	C532.000671,357.167145 532.406799,357.264954 532.907227,357.675903 
	C536.575745,361.671356 540.149841,365.353668 543.723938,369.036011 
	C543.723938,369.036011 543.955505,369.087677 544.044983,369.443420 
	C544.614197,370.498627 545.093872,371.198090 545.573547,371.897552 
z"/>
<path fill="#20B3F5" opacity="1.000000" stroke="none" 
	d="
M543.363159,545.357727 
	C547.218994,536.030823 551.022888,527.101929 554.705933,518.123474 
	C557.967285,510.172974 561.051025,502.149414 564.340881,494.210999 
	C564.707886,493.325256 565.878906,492.223328 566.727295,492.178772 
	C571.045471,491.951874 575.385010,491.930267 579.704651,492.119293 
	C580.480835,492.153229 581.528931,493.376587 581.894348,494.276947 
	C587.051575,506.982422 592.073608,519.742615 597.208191,532.457336 
	C601.646301,543.447449 606.185791,554.396667 611.098999,566.385132 
	C605.183350,566.385132 599.913391,566.624023 594.694519,566.213135 
	C593.427307,566.113342 591.806519,564.073975 591.235657,562.585999 
	C587.001587,551.548462 587.071960,551.520508 575.559937,551.522034 
	C571.063171,551.522644 566.543091,551.272827 562.082886,551.678406 
	C560.617981,551.811646 558.774536,553.369812 558.038574,554.768127 
	C556.513550,557.665649 555.820679,560.995483 554.355347,563.932861 
	C553.782654,565.080811 552.066467,566.350769 550.847900,566.374512 
	C541.025574,566.565979 531.191528,566.653015 521.376953,566.312866 
	C519.464172,566.246460 517.133972,564.578613 515.827515,562.973083 
	C509.421326,555.100708 503.296082,546.999756 495.892609,539.144897 
	C495.892609,548.058105 495.892609,556.971313 495.892609,565.657043 
	C494.569214,566.119019 494.119873,566.395020 493.656830,566.420227 
	C479.061646,567.214783 479.061462,567.211060 479.061462,552.623718 
	C479.061493,534.136902 479.186615,515.648621 478.966858,497.164398 
	C478.916626,492.938660 480.224152,491.735260 484.333374,491.906219 
	C492.148529,492.231415 500.018066,491.616486 507.802338,492.211670 
	C515.325745,492.786926 522.038574,495.501099 526.490173,502.383301 
	C532.901855,512.295593 529.191772,528.166321 518.717529,533.475220 
	C515.058899,535.329651 514.997925,536.786133 517.583008,539.703857 
	C523.225830,546.072510 528.560547,552.713745 534.056030,559.213989 
	C534.651978,559.918884 535.477295,560.429626 536.948547,561.659180 
	C539.190674,556.000671 541.224670,550.867432 543.363159,545.357727 
M512.006226,516.268860 
	C511.567169,508.061981 505.252106,503.689117 497.439362,506.325165 
	C496.608429,506.605469 495.580353,507.870087 495.553009,508.707733 
	C495.380829,513.982971 495.465790,519.266541 495.465790,524.455261 
	C505.559052,526.014221 508.895874,524.456177 512.006226,516.268860 
M579.276245,531.139954 
	C577.396179,526.212219 575.516113,521.284485 573.636108,516.356750 
	C571.160889,519.796387 570.099182,523.037231 568.863586,526.210449 
	C567.587097,529.488770 566.141724,532.701355 564.563904,536.430359 
	C570.468201,536.430359 575.587097,536.430359 581.212891,536.430359 
	C580.500916,534.569092 579.993469,533.242615 579.276245,531.139954 
z"/>
<path fill="#1DB2F5" opacity="1.000000" stroke="none" 
	d="
M498.596252,152.758179 
	C505.909424,141.074341 515.920837,133.495392 530.105286,132.891174 
	C544.805298,132.264984 558.151184,141.261978 564.219421,154.797028 
	C565.470154,157.586807 568.066467,160.792618 570.768311,161.742691 
	C585.406006,166.889786 593.776672,188.220551 588.626282,202.275620 
	C583.827271,215.371780 574.387390,222.049377 561.838989,225.506287 
	C547.932495,229.337296 533.805908,227.658157 519.375366,226.134766 
	C523.660828,217.025787 528.956238,208.666809 528.300415,198.001343 
	C532.986084,193.095917 532.794800,187.489960 528.025879,182.523941 
	C526.314209,178.436295 525.052734,174.454178 522.864929,171.071075 
	C517.050293,162.079651 508.395050,156.601852 498.596252,152.758179 
M554.740356,183.174576 
	C553.750977,183.052734 552.762634,182.835556 551.772095,182.825134 
	C546.758301,182.772369 543.876831,184.994247 543.221619,189.248276 
	C542.545654,193.637436 544.977356,196.262405 548.534363,197.766281 
	C552.873169,199.600723 556.893127,197.877533 558.960083,193.756882 
	C561.247375,189.196915 558.365417,186.337479 554.740356,183.174576 
z"/>
<path fill="#21B4F5" opacity="1.000000" stroke="none" 
	d="
M289.027161,491.208862 
	C305.623138,489.900513 322.273163,504.868164 324.763641,521.046875 
	C327.084229,536.121826 323.821625,548.767883 312.474823,558.992310 
	C309.659698,561.528992 306.127594,563.269958 302.923035,565.373901 
	C306.963470,568.612671 313.952820,568.049683 322.704559,563.653748 
	C324.080597,566.376038 325.840454,568.994873 326.702515,571.881714 
	C327.232849,573.657654 327.101868,576.396423 326.046570,577.752258 
	C320.560608,584.800354 311.050903,586.157166 302.350769,582.845642 
	C296.148376,580.484924 289.405151,579.436340 282.822449,578.251038 
	C280.893127,577.903625 278.120667,578.463013 276.729675,579.713562 
	C274.106659,582.071777 272.277405,581.222473 271.330872,578.824158 
	C270.668213,577.145142 270.730682,574.206482 271.795166,573.018738 
	C274.127472,570.416443 277.302704,568.569641 280.103027,566.437683 
	C264.912079,564.041504 249.809204,548.104370 252.299255,524.773682 
	C254.191254,507.046478 267.295410,491.368256 289.027161,491.208862 
M306.732513,524.025818 
	C305.688477,514.177063 300.342255,509.283081 290.930450,507.820618 
	C284.385315,506.803619 278.142883,509.468292 274.231262,515.467651 
	C270.215027,521.627441 269.402435,528.547058 270.802246,535.578613 
	C272.405182,543.630615 277.490784,548.767944 285.546570,550.541992 
	C291.843658,551.928711 297.427643,549.648193 301.804962,545.396667 
	C307.574921,539.792480 307.448669,532.310791 306.732513,524.025818 
z"/>
<path fill="#1C22AC" opacity="1.000000" stroke="none" 
	d="
M528.040527,198.258987 
	C528.956238,208.666809 523.660828,217.025787 518.992554,225.901947 
	C512.077637,233.496887 504.730408,240.243271 495.468018,244.418457 
	C491.228363,246.329529 486.757629,247.727905 482.179077,249.438217 
	C485.170166,241.724365 487.941956,234.914688 490.449890,228.009201 
	C492.771576,221.616394 492.333710,220.583191 486.119324,218.005157 
	C477.979034,214.628128 471.299652,209.949738 467.075989,201.741119 
	C462.119934,192.109055 462.519501,182.666946 466.424866,173.097855 
	C472.130280,159.118134 483.618744,153.883362 498.194031,152.856567 
	C508.395050,156.601852 517.050293,162.079651 522.864929,171.071075 
	C525.052734,174.454178 526.314209,178.436295 527.647583,182.513947 
	C526.312622,182.752106 525.328430,182.512482 524.343445,182.509094 
	C518.507141,182.489029 515.824280,185.174606 515.816650,190.968506 
	C515.809937,196.061813 518.828674,198.699219 524.581299,198.573303 
	C525.736145,198.548019 526.887512,198.367783 528.040527,198.258987 
M494.935120,198.452621 
	C495.757538,198.457031 496.599579,198.579330 497.399170,198.446396 
	C501.955475,197.688812 504.508514,194.322739 504.108063,189.690887 
	C503.711884,185.108459 500.951019,182.656204 496.155212,182.734619 
	C492.330231,182.797134 489.410858,184.055649 488.542908,188.325378 
	C487.516083,193.376709 489.540894,196.546570 494.935120,198.452621 
z"/>
<path fill="#20B4F5" opacity="1.000000" stroke="none" 
	d="
M437.827454,567.152588 
	C423.180695,568.447266 411.759918,563.369995 403.766663,551.665588 
	C397.279602,542.166687 394.888123,531.847961 397.847534,520.132690 
	C401.205780,506.838470 409.436127,497.641632 421.399811,492.984131 
	C431.545166,489.034515 442.935852,489.702698 452.603546,495.706543 
	C467.335541,504.855347 473.639496,518.558472 470.980255,535.794495 
	C468.475647,552.027954 455.838623,566.070129 437.827454,567.152588 
M419.433655,515.008545 
	C418.721130,515.892273 417.721405,516.668030 417.341736,517.677002 
	C414.479462,525.283569 414.279785,533.034607 417.450928,540.512634 
	C419.975159,546.465088 424.809998,550.097229 431.300995,551.050354 
	C438.345001,552.084717 444.684570,550.095703 448.778778,544.288269 
	C452.795959,538.590027 453.916534,531.797424 452.954193,524.768494 
	C451.757172,516.025696 447.052826,509.850739 438.596863,507.673004 
	C431.260559,505.783630 424.617798,508.035278 419.433655,515.008545 
z"/>
<path fill="#1F24AD" opacity="1.000000" stroke="none" 
	d="
M189.082062,553.974670 
	C189.082092,533.224365 189.082092,512.968933 189.082092,492.177917 
	C205.211060,492.105164 220.991119,489.709808 234.810562,500.810425 
	C243.114410,507.480530 249.965958,525.028198 247.549179,535.389160 
	C244.687378,547.657959 238.202225,556.473267 227.632370,562.545959 
	C224.696411,564.232727 221.180237,565.645996 217.866379,565.798706 
	C208.449142,566.232544 198.998917,565.950867 189.082047,565.950867 
	C189.082047,562.044312 189.082047,558.256958 189.082062,553.974670 
M209.530563,551.314087 
	C222.802094,550.072205 229.961624,540.645691 229.495102,528.331787 
	C228.988068,514.948669 219.202164,506.428619 207.024307,507.493652 
	C206.854340,507.777191 206.537628,508.059631 206.535492,508.344421 
	C206.435211,521.832214 206.320328,535.320374 206.386581,548.807617 
	C206.390701,549.647400 207.840790,550.480042 209.530563,551.314087 
z"/>
<path fill="#20B3F5" opacity="1.000000" stroke="none" 
	d="
M365.854980,550.287354 
	C370.455017,548.249573 372.419220,545.087891 372.471954,540.383362 
	C372.634338,525.902893 373.140564,511.424255 373.132263,496.945099 
	C373.129883,492.848297 374.493469,491.685608 378.301727,491.935852 
	C382.091522,492.184875 385.910461,491.990387 390.953278,491.990387 
	C390.424835,511.197449 390.811096,530.011353 389.066833,548.625671 
	C387.964569,560.388550 376.917847,566.728271 366.608093,567.022949 
	C358.988190,567.240723 351.269592,567.986633 344.304047,563.768982 
	C338.452698,560.225952 333.622833,555.409302 333.365479,548.412903 
	C332.698914,530.291199 332.738708,512.143433 332.523590,494.005737 
	C332.518127,493.543365 332.826050,493.077271 333.198700,492.007416 
	C337.469513,492.007416 341.934479,491.746246 346.324249,492.204651 
	C347.328979,492.309570 348.794403,494.879333 348.824463,496.339874 
	C349.040161,506.826935 348.730743,517.326477 349.026581,527.809631 
	C349.179932,533.243347 349.959351,538.701172 350.946930,544.057617 
	C351.920624,549.338623 357.765869,551.750977 365.854980,550.287354 
z"/>
<path fill="#1D22AC" opacity="1.000000" stroke="none" 
	d="
M165.530777,559.460083 
	C163.083420,551.401428 163.083450,551.398438 155.266510,551.314270 
	C150.270844,551.260498 145.231903,551.604370 140.292191,551.053711 
	C135.868195,550.560547 134.155487,552.814453 132.795547,556.266174 
	C128.810196,566.381653 128.784195,566.371460 117.957611,566.370300 
	C115.866554,566.370056 113.775497,566.370178 110.998573,566.370178 
	C113.683960,559.478882 115.982132,553.389771 118.423149,547.358398 
	C122.919243,536.249451 127.530319,525.186951 132.031815,514.080139 
	C134.442566,508.131958 136.691986,502.118530 139.079025,496.160522 
	C140.269638,493.188721 142.124146,491.766785 145.771759,491.872650 
	C156.076019,492.171631 156.150665,491.921814 159.861343,501.085785 
	C166.892517,518.450073 173.813110,535.859192 180.835327,553.227173 
	C182.485413,557.308228 184.357117,561.299805 186.382965,565.916077 
	C180.119781,565.916077 174.424576,565.916077 168.677032,565.916077 
	C167.689240,563.946899 166.658752,561.892578 165.530777,559.460083 
M152.285675,523.198303 
	C151.130127,520.670776 149.974579,518.143250 148.431885,514.768921 
	C145.562790,522.559937 143.068481,529.333313 140.455109,536.429932 
	C146.439804,536.429932 151.328751,536.429932 156.822220,536.429932 
	C155.286270,531.916931 153.927094,527.923279 152.285675,523.198303 
z"/>
<path fill="#1922AD" opacity="1.000000" stroke="none" 
	d="
M527.783142,354.245758 
	C525.080505,353.262909 521.971558,350.972778 519.785583,351.652191 
	C517.437683,352.381958 515.879822,355.843567 514.109741,358.212097 
	C501.392242,375.228912 488.657166,392.233215 476.078278,409.352142 
	C474.493713,411.508606 473.786743,414.309937 472.393982,417.051392 
	C468.221680,410.256195 464.328522,403.222076 460.098450,396.012207 
	C463.402924,390.420593 466.799774,384.819397 470.735199,379.626282 
	C479.659424,367.849976 488.848877,356.274658 498.401855,344.276062 
	C499.261230,343.372406 499.649231,342.810242 500.037201,342.248108 
	C501.829010,339.931915 503.620850,337.615753 506.046265,335.289612 
	C507.840912,335.486053 509.001984,335.692444 510.163025,335.898865 
	C510.573486,335.986633 510.983917,336.074402 511.657227,336.686096 
	C514.062683,338.737091 516.205261,340.264160 518.347839,341.791260 
	C518.347839,341.791260 518.735840,341.883179 518.850830,342.406372 
	C520.004578,343.600433 521.043335,344.271271 522.082153,344.942078 
	C522.975403,345.467468 523.868591,345.992828 524.887451,347.141846 
	C526.181152,348.560455 527.349121,349.355347 528.517151,350.150238 
	C529.160950,350.389038 529.804810,350.627838 530.678406,351.435120 
	C530.962219,352.644806 531.016174,353.286041 531.034607,353.963745 
	C530.999023,354.000244 530.927307,354.072723 530.534973,354.073059 
	C529.356140,354.130859 528.569641,354.188293 527.783142,354.245758 
z"/>
<path fill="#354FC0" opacity="1.000000" stroke="none" 
	d="
M543.635803,368.688141 
	C540.149841,365.353668 536.575745,361.671356 533.171570,357.444458 
	C533.452698,356.041595 533.563965,355.183350 533.762634,354.237213 
	C533.850037,354.149323 534.024597,353.973236 534.024597,353.973236 
	C537.198975,358.762238 540.373291,363.551270 543.635803,368.688141 
z"/>
<path fill="#354FC0" opacity="1.000000" stroke="none" 
	d="
M518.186890,341.501160 
	C516.205261,340.264160 514.062683,338.737091 511.911621,336.873230 
	C513.944092,338.094696 515.985046,339.652893 518.186890,341.501160 
z"/>
<path fill="#5D60C3" opacity="1.000000" stroke="none" 
	d="
M170.467804,380.044739 
	C171.065964,380.037598 171.360794,380.118469 172.083588,380.364746 
	C171.652573,381.723450 170.793564,382.916687 169.934555,384.109955 
	C169.457687,383.847137 168.980820,383.584351 168.503952,383.321533 
	C169.057465,382.258606 169.610977,381.195679 170.467804,380.044739 
z"/>
<path fill="#5D60C3" opacity="1.000000" stroke="none" 
	d="
M260.726990,299.186066 
	C261.540527,297.881744 262.652039,296.437958 264.067749,294.878784 
	C263.256317,296.191132 262.140656,297.618896 260.726990,299.186066 
z"/>
<path fill="#5D60C3" opacity="1.000000" stroke="none" 
	d="
M215.692520,341.190552 
	C216.546829,339.871490 217.711029,338.432312 219.190704,336.889893 
	C218.338242,338.214569 217.170334,339.642487 215.692520,341.190552 
z"/>
<path fill="#354FC0" opacity="1.000000" stroke="none" 
	d="
M510.076050,335.573517 
	C509.001984,335.692444 507.840912,335.486053 506.355286,335.122986 
	C506.379700,334.380157 506.728699,333.793976 507.345642,333.132568 
	C508.405426,333.787659 509.197235,334.517914 510.076050,335.573517 
z"/>
<path fill="#5D60C3" opacity="1.000000" stroke="none" 
	d="
M369.236145,353.817230 
	C369.673187,352.888763 370.430389,351.906982 371.541534,350.927185 
	C371.115753,351.874084 370.336029,352.819031 369.236145,353.817230 
z"/>
<path fill="#5D60C3" opacity="1.000000" stroke="none" 
	d="
M279.035217,294.340149 
	C279.983276,294.784882 280.969879,295.567291 281.964661,296.691711 
	C281.006439,296.248413 280.040070,295.463104 279.035217,294.340149 
z"/>
<path fill="#354FC0" opacity="1.000000" stroke="none" 
	d="
M531.070190,353.927277 
	C531.016174,353.286041 530.962219,352.644806 530.921509,351.682312 
	C531.887390,352.041565 532.839905,352.722107 533.908447,353.687927 
	C534.024597,353.973236 533.850037,354.149323 533.448364,354.137451 
	C532.387878,354.059479 531.729004,353.993378 531.070190,353.927277 
z"/>
<path fill="#5D60C3" opacity="1.000000" stroke="none" 
	d="
M336.795746,353.761627 
	C337.787598,354.356537 338.914764,355.229279 340.061646,356.461731 
	C339.031281,355.894104 337.981171,354.966797 336.795746,353.761627 
z"/>
<path fill="#5D60C3" opacity="1.000000" stroke="none" 
	d="
M237.287369,320.890503 
	C237.743469,319.960754 238.531357,318.984375 239.660156,318.004395 
	C239.207092,318.948456 238.413116,319.896179 237.287369,320.890503 
z"/>
<path fill="#5D60C3" opacity="1.000000" stroke="none" 
	d="
M276.070007,291.314575 
	C277.010345,291.760590 277.992615,292.541992 278.986206,293.663330 
	C278.035645,293.218842 277.073792,292.434418 276.070007,291.314575 
z"/>
<path fill="#5D60C3" opacity="1.000000" stroke="none" 
	d="
M195.214005,359.714233 
	C195.668610,358.813721 196.435089,357.859711 197.551697,356.919006 
	C197.109848,357.841797 196.317856,358.751251 195.214005,359.714233 
z"/>
<path fill="#5D60C3" opacity="1.000000" stroke="none" 
	d="
M340.896912,357.452271 
	C341.876587,358.024231 342.950439,358.920715 344.134186,360.103821 
	C343.159729,359.519257 342.075378,358.648010 340.896912,357.452271 
z"/>
<path fill="#5D60C3" opacity="1.000000" stroke="none" 
	d="
M363.207245,359.765869 
	C363.643951,358.847504 364.396606,357.873535 365.499756,356.901733 
	C365.074615,357.839355 364.298920,358.774811 363.207245,359.765869 
z"/>
<path fill="#5D60C3" opacity="1.000000" stroke="none" 
	d="
M360.194977,362.743256 
	C360.629303,361.828949 361.377289,360.857727 362.473755,359.888062 
	C362.051025,360.821869 361.279846,361.754089 360.194977,362.743256 
z"/>
<path fill="#5D60C3" opacity="1.000000" stroke="none" 
	d="
M357.180084,365.711853 
	C357.615540,364.806366 358.362000,363.841156 359.454834,362.877777 
	C359.031158,363.803802 358.261108,364.727966 357.180084,365.711853 
z"/>
<path fill="#5D60C3" opacity="1.000000" stroke="none" 
	d="
M366.223175,356.795166 
	C366.658813,355.870270 367.412720,354.891083 368.518951,353.913574 
	C368.094635,354.857178 367.318054,355.799042 366.223175,356.795166 
z"/>
<path fill="#5D60C3" opacity="1.000000" stroke="none" 
	d="
M180.477173,373.113556 
	C181.078186,372.157593 181.989532,371.069702 183.200851,369.885132 
	C182.596390,370.852814 181.691956,371.917236 180.477173,373.113556 
z"/>
<path fill="#5D60C3" opacity="1.000000" stroke="none" 
	d="
M176.650024,377.199951 
	C177.271927,376.174591 178.194595,375.051788 179.477661,373.926086 
	C178.875641,374.983002 177.913208,376.042755 176.650024,377.199951 
z"/>
<path fill="#5D60C3" opacity="1.000000" stroke="none" 
	d="
M284.968506,300.393921 
	C285.932709,300.838623 286.927460,301.625214 287.926514,302.758270 
	C286.953583,302.315125 285.976318,301.525482 284.968506,300.393921 
z"/>
<path fill="#5D60C3" opacity="1.000000" stroke="none" 
	d="
M282.000549,297.366638 
	C282.956909,297.809479 283.947540,298.591827 284.943054,299.718109 
	C283.976898,299.276733 283.005859,298.491455 282.000549,297.366638 
z"/>
<path fill="#5D60C3" opacity="1.000000" stroke="none" 
	d="
M234.234863,323.816498 
	C234.685440,322.892029 235.455078,321.914154 236.580963,320.945557 
	C236.142792,321.890961 235.348358,322.827026 234.234863,323.816498 
z"/>
<path fill="#354FC0" opacity="1.000000" stroke="none" 
	d="
M521.985107,344.637939 
	C521.043335,344.271271 520.004578,343.600433 518.965149,342.569733 
	C519.939026,342.917847 520.913513,343.625824 521.985107,344.637939 
z"/>
<path fill="#5D60C3" opacity="1.000000" stroke="none" 
	d="
M231.195190,326.743988 
	C231.644806,325.834290 232.406479,324.866333 233.519073,323.906372 
	C233.082382,324.838135 232.294800,325.761932 231.195190,326.743988 
z"/>
<path fill="#5D60C3" opacity="1.000000" stroke="none" 
	d="
M375.267700,347.867798 
	C375.705078,346.930908 376.466125,345.942657 377.584381,344.956299 
	C377.158173,345.910919 376.374756,346.863708 375.267700,347.867798 
z"/>
<path fill="#5D60C3" opacity="1.000000" stroke="none" 
	d="
M240.335770,317.956268 
	C240.793900,317.018005 241.587082,316.035004 242.724426,315.048248 
	C242.269348,316.000153 241.470078,316.955841 240.335770,317.956268 
z"/>
<path fill="#354FC0" opacity="1.000000" stroke="none" 
	d="
M528.473633,349.837585 
	C527.349121,349.355347 526.181152,348.560455 524.982300,347.455231 
	C526.111023,347.938263 527.270630,348.731598 528.473633,349.837585 
z"/>
<path fill="#5D60C3" opacity="1.000000" stroke="none" 
	d="
M372.251831,350.842773 
	C372.689209,349.910126 373.448730,348.925232 374.563812,347.942078 
	C374.137604,348.892700 373.355804,349.841614 372.251831,350.842773 
z"/>
<path fill="#5D60C3" opacity="1.000000" stroke="none" 
	d="
M306.900208,323.438599 
	C307.834045,323.910004 308.858490,324.685150 309.846741,325.821716 
	C308.870636,325.369537 307.930695,324.555939 306.900208,323.438599 
z"/>
<path fill="#5D60C3" opacity="1.000000" stroke="none" 
	d="
M273.224243,288.722870 
	C274.104706,289.042938 275.060608,289.703278 276.018677,290.667786 
	C275.113800,290.335663 274.206757,289.699402 273.224243,288.722870 
z"/>
<path fill="#5D60C3" opacity="1.000000" stroke="none" 
	d="
M333.793884,350.719055 
	C334.687317,351.172028 335.701019,351.895630 336.616943,352.980896 
	C335.650818,352.558258 334.782501,351.773956 333.793884,350.719055 
z"/>
<path fill="#5D60C3" opacity="1.000000" stroke="none" 
	d="
M265.083618,294.393555 
	C265.509583,293.538788 266.254730,292.728516 267.273804,291.854675 
	C266.832733,292.673431 266.117767,293.555725 265.083618,294.393555 
z"/>
<path fill="#5D60C3" opacity="1.000000" stroke="none" 
	d="
M309.907990,326.488678 
	C310.834137,326.953705 311.851227,327.717529 312.826538,328.841736 
	C311.856110,328.397217 310.927521,327.592346 309.907990,326.488678 
z"/>
<path fill="#5D60C3" opacity="1.000000" stroke="none" 
	d="
M312.890656,329.512787 
	C313.815430,329.977814 314.832672,330.739899 315.800781,331.863312 
	C314.828827,331.419708 313.905975,330.614777 312.890656,329.512787 
z"/>
<path fill="#5D60C3" opacity="1.000000" stroke="none" 
	d="
M257.591370,302.171265 
	C258.065918,301.245209 258.830200,300.226288 259.951904,299.311523 
	C259.499878,300.303284 258.690491,301.190857 257.591370,302.171265 
z"/>
<path fill="#5D60C3" opacity="1.000000" stroke="none" 
	d="
M315.871460,332.543243 
	C316.794983,333.005249 317.814301,333.761658 318.778687,334.880280 
	C317.804901,334.440857 316.886078,333.639252 315.871460,332.543243 
z"/>
<path fill="#5D60C3" opacity="1.000000" stroke="none" 
	d="
M254.465302,305.151459 
	C254.950027,304.201996 255.740189,303.174774 256.889954,302.223755 
	C256.423309,303.224579 255.597031,304.149139 254.465302,305.151459 
z"/>
<path fill="#5D60C3" opacity="1.000000" stroke="none" 
	d="
M173.482147,380.188477 
	C173.965485,379.218414 174.758331,378.188721 175.909134,377.250793 
	C175.441956,378.271301 174.616806,379.200043 173.482147,380.188477 
z"/>
<path fill="#5D60C3" opacity="1.000000" stroke="none" 
	d="
M318.856201,335.568970 
	C319.777832,336.029419 320.797791,336.781799 321.756470,337.896851 
	C320.781677,337.460022 319.868103,336.660461 318.856201,335.568970 
z"/>
<path fill="#5D60C3" opacity="1.000000" stroke="none" 
	d="
M347.435181,364.099976 
	C348.363098,364.510681 349.211761,365.242798 350.134338,366.249634 
	C349.257477,365.823364 348.306702,365.122406 347.435181,364.099976 
z"/>
<path fill="#5D60C3" opacity="1.000000" stroke="none" 
	d="
M198.259796,356.856964 
	C198.732437,355.935822 199.529785,354.968872 200.667114,354.003113 
	C200.199554,354.939941 199.392029,355.875549 198.259796,356.856964 
z"/>
<path fill="#5D60C3" opacity="1.000000" stroke="none" 
	d="
M330.802368,347.691071 
	C331.703644,348.145111 332.720428,348.874634 333.645813,349.966614 
	C332.675537,349.541504 331.796692,348.754028 330.802368,347.691071 
z"/>
<path fill="#5D60C3" opacity="1.000000" stroke="none" 
	d="
M327.813965,344.657898 
	C328.721313,345.114685 329.738770,345.852020 330.671326,346.952057 
	C329.698975,346.522644 328.811523,345.730530 327.813965,344.657898 
z"/>
<path fill="#5D60C3" opacity="1.000000" stroke="none" 
	d="
M321.841736,338.594666 
	C322.759491,339.055481 323.778046,339.805267 324.726562,340.917969 
	C323.751831,340.481781 322.847229,339.682709 321.841736,338.594666 
z"/>
<path fill="#5D60C3" opacity="1.000000" stroke="none" 
	d="
M378.283173,344.891205 
	C378.734161,343.961334 379.509949,342.981262 380.623596,341.989075 
	C380.176971,342.931610 379.392456,343.886292 378.283173,344.891205 
z"/>
<path fill="#5D60C3" opacity="1.000000" stroke="none" 
	d="
M344.506287,361.088104 
	C345.414825,361.489197 346.243195,362.208038 347.154663,363.192383 
	C346.300537,362.773926 345.363312,362.089874 344.506287,361.088104 
z"/>
<path fill="#5D60C3" opacity="1.000000" stroke="none" 
	d="
M212.449554,344.152588 
	C212.950790,343.198456 213.761139,342.185852 214.926819,341.272034 
	C214.441010,342.278534 213.599838,343.186310 212.449554,344.152588 
z"/>
<path fill="#5D60C3" opacity="1.000000" stroke="none" 
	d="
M324.826233,341.629211 
	C325.739105,342.086823 326.758301,342.828857 327.700836,343.934082 
	C326.726959,343.502716 325.829742,342.708221 324.826233,341.629211 
z"/>
<path fill="#5D60C3" opacity="1.000000" stroke="none" 
	d="
M354.535095,368.168091 
	C354.838287,367.430115 355.454773,366.649109 356.422455,365.867554 
	C356.131927,366.619659 355.490143,367.372406 354.535095,368.168091 
z"/>
<path fill="#5D60C3" opacity="1.000000" stroke="none" 
	d="
M202.114288,353.408539 
	C202.366608,352.610718 202.930222,351.842407 203.806946,351.077240 
	C203.555237,351.866272 202.990417,352.652161 202.114288,353.408539 
z"/>
<path fill="#5D60C3" opacity="1.000000" stroke="none" 
	d="
M228.505554,329.183929 
	C228.830475,328.471802 229.458054,327.671600 230.443573,326.875305 
	C230.137100,327.618073 229.472656,328.356964 228.505554,329.183929 
z"/>
<path fill="#5D60C3" opacity="1.000000" stroke="none" 
	d="
M244.139847,314.499146 
	C244.386520,313.682007 244.948639,312.887634 245.829437,312.096863 
	C245.583832,312.907623 245.019562,313.714752 244.139847,314.499146 
z"/>
<path fill="#5D60C3" opacity="1.000000" stroke="none" 
	d="
M351.038086,368.278717 
	C351.818878,368.029663 352.616852,368.071991 353.811188,368.169861 
	C353.156799,368.340302 352.106018,368.455200 351.038086,368.278717 
z"/>
<path fill="#354FC0" opacity="1.000000" stroke="none" 
	d="
M545.579956,371.602661 
	C545.093872,371.198090 544.614197,370.498627 544.032654,369.561401 
	C544.482727,369.985016 545.034546,370.646393 545.579956,371.602661 
z"/>
<path fill="#5D60C3" opacity="1.000000" stroke="none" 
	d="
M192.472504,362.157013 
	C192.632050,361.525421 193.081711,360.804138 193.890991,360.136017 
	C193.754608,360.815216 193.258621,361.441284 192.472504,362.157013 
z"/>
<path fill="#5D60C3" opacity="1.000000" stroke="none" 
	d="
M220.083954,336.481201 
	C220.337906,335.981659 220.899368,335.513184 221.751648,335.035645 
	C221.492142,335.521759 220.941788,336.016998 220.083954,336.481201 
z"/>
<path fill="#5D60C3" opacity="1.000000" stroke="none" 
	d="
M288.374146,304.157349 
	C288.983032,304.259674 289.530731,304.665863 290.109619,305.339355 
	C289.531555,305.224823 288.922272,304.843018 288.374146,304.157349 
z"/>
<path fill="#5D60C3" opacity="1.000000" stroke="none" 
	d="
M268.099548,291.552155 
	C268.343018,291.021088 268.899628,290.527618 269.753845,290.033203 
	C269.505188,290.551392 268.958954,291.070557 268.099548,291.552155 
z"/>
<path fill="#5D60C3" opacity="1.000000" stroke="none" 
	d="
M291.321320,307.176392 
	C291.939423,307.282104 292.498993,307.696838 293.092590,308.384247 
	C292.505341,308.266418 291.884064,307.875916 291.321320,307.176392 
z"/>
<path fill="#5D60C3" opacity="1.000000" stroke="none" 
	d="
M184.074402,369.436676 
	C184.326431,368.950928 184.883499,368.487488 185.728745,368.017212 
	C185.471100,368.493256 184.925278,368.976105 184.074402,369.436676 
z"/>
<path fill="#354FC0" opacity="1.000000" stroke="none" 
	d="
M499.728210,342.239258 
	C499.649231,342.810242 499.261230,343.372406 498.611511,343.998840 
	C498.706268,343.452240 499.062744,342.841339 499.728210,342.239258 
z"/>
<path fill="#1922AD" opacity="1.000000" stroke="none" 
	d="
M531.034607,353.963745 
	C531.729004,353.993378 532.387878,354.059479 533.360962,354.225342 
	C533.563965,355.183350 533.452698,356.041595 533.077148,357.131287 
	C532.406799,357.264954 532.000671,357.167145 531.293945,356.606995 
	C530.971375,355.454010 530.949341,354.763367 530.927307,354.072723 
	C530.927307,354.072723 530.999023,354.000244 531.034607,353.963745 
z"/>

</svg>